<svg xmlns="http://www.w3.org/2000/svg" xmlns:xlink="http://www.w3.org/1999/xlink" width="25" height="24" viewBox="0 0 25 24">
    <defs>
        <path id="ic-about-us-white_svg__a"
              d="M7 6c0-1.103.897-2 2-2a2.001 2.001 0 012 2v1c0 .737-.405 1.375-1 1.722A1.978 1.978 0 019 9c-1.103 0-2-.897-2-2V6zm11.34 8.028c2.65.208 4.66 2.341 4.66 4.958V21.5a1.5 1.5 0 01-1.5 1.5H19v-6.014c0-.47-.047-.93-.135-1.376a6.919 6.919 0 00-.526-1.582zM5.795 12.002c.061-.003.118.005.177.01l.038.003c.039.003.078.005.116.011.005.002.01.002.015.002.024.005.047.013.071.018l.065.02c.043.013.086.022.128.04.047.018.091.043.137.068.032.017.066.033.098.052l.03.017c.039.027.075.056.113.086.033.026.068.05.099.08.029.028.056.06.082.092.025.027.049.054.071.083a.268.268 0 01.035.039c.032.045.058.095.086.145.019.034.042.066.059.101.007.015.011.033.017.049.012.03.022.062.033.094.004.011.01.024.013.035.01.032.025.063.034.096.022.093.036.191.041.29l.001.007-.004.062a1.498 1.498 0 01-1.433 1.497A1.99 1.99 0 004 16.986V20h10v-3.014c0-.412-.127-.794-.342-1.11a1.996 1.996 0 00-1.092-.79 1.932 1.932 0 00-.484-.085 1.5 1.5 0 01-1.433-1.499c0-.022-.005-.042-.004-.063.002-.053.014-.104.022-.156.007-.046.009-.093.02-.138.005-.018.013-.035.017-.053l.011-.027c.021-.07.041-.138.071-.202l.015-.027c.109-.218.272-.402.466-.545.031-.023.059-.05.093-.07.082-.05.165-.09.251-.123.016-.007.033-.01.049-.016.072-.024.145-.045.22-.058l.105-.01c.073-.007.145-.014.22-.01.486.02.942.128 1.379.274.934.31 1.734.88 2.327 1.63l.076.094c.066.087.144.165.205.257.124.19.229.39.321.598.093.209.171.425.239.645.148.471.248.963.248 1.484v4.517A1.5 1.5 0 0115.5 23H2.501l-.154-.007a1.501 1.501 0 01-1.091-.654c-.041-.061-.073-.128-.105-.195-.01-.02-.024-.038-.033-.06A1.497 1.497 0 011 21.5v-4.514c0-1.643.794-3.094 2.023-4.004.026-.018.047-.042.073-.061.078-.056.169-.095.251-.146a4.932 4.932 0 011.068-.498 4.988 4.988 0 011.378-.274zm9.535-8.969C17.931 3.208 20 5.356 20 8v1a4.995 4.995 0 01-2.17 4.114 6.912 6.912 0 00-.974-1.158 6.96 6.96 0 00-1.357-1.027 7.026 7.026 0 00-.539-.278A6.955 6.955 0 0016 7.001V6c0-.474-.05-.935-.139-1.38a7.008 7.008 0 00-.53-1.588zM9.001 1c1.722 0 3.244.876 4.144 2.207.03.042.046.092.074.136.266.421.463.885.594 1.377.11.411.187.835.187 1.28v1c0 1.025-.313 1.98-.844 2.773-.069.103-.156.191-.232.29a5.107 5.107 0 01-2.143 1.594 4.954 4.954 0 01-1.78.343c-1.6 0-3.009-.768-3.925-1.939-.07-.09-.156-.17-.22-.268A4.96 4.96 0 014 7V6c0-2.757 2.243-5 5-5z"/>
    </defs>
    <g fill="none" fill-rule="evenodd" transform="translate(.266)">
        <path d="M0 0h24v24H0z"/>
        <mask id="ic-about-us-white_svg__b" fill="currentColor">
            <use xlink:href="#ic-about-us-white_svg__a"/>
        </mask>
        <use fill="currentColor" xlink:href="#ic-about-us-white_svg__a"/>
        <g fill="currentColor" mask="url(#ic-about-us-white_svg__b)">
            <path d="M0 0h24v24H0z"/>
        </g>
    </g>
</svg>
