<svg xmlns="http://www.w3.org/2000/svg" xmlns:xlink="http://www.w3.org/1999/xlink" width="25" height="24" viewBox="0 0 25 24">
    <defs>
        <path id="ic-cashback-white_svg__a"
              d="M14.576 10.453v-2.07h2.127c.433 0 .762.085.952.243.21.176.256.534.256.805 0 .388-.083.663-.24.794-.181.152-.47.228-.857.228h-2.238zm0-5.805h2.064c.363 0 .632.07.78.2.135.12.206.383.206.759 0 .323-.075.559-.223.7-.156.152-.377.224-.676.224h-2.151V4.648zm-1.112 9.282a1.536 1.536 0 01.047 3.069h-1.51a.746.746 0 00-.667.421.75.75 0 00-.084.33l.002.008c.005.41.337.741.748.741h3.112l2.12-1.015 1.906-.914 1.526-.732c.567-.236 1.081-.25 1.498-.066.342.151.603.428.731.782.295.805.004 1.505-.865 2.078l-7.36 4.234a1.005 1.005 0 01-.499.133h-3.408a.982.982 0 01-.348-.062L6.5 21.483V13.93zm-9.32-1.5a1 1 0 011 1V22a1 1 0 01-1 1H1.998a1 1 0 01-1-1v-8.57a1 1 0 011-1zM15.873 1c.709 0 1.285.576 1.285 1.284v.533c.748.044 1.352.279 1.796.698.503.473.759 1.157.759 2.03a2.5 2.5 0 01-.366 1.35c-.1.162-.213.307-.341.435.65.427.993 1.145.993 2.1 0 .577-.13 1.086-.386 1.517-.257.433-.614.77-1.061 1.002-.418.22-.888.336-1.394.345v.395c0 .708-.576 1.285-1.284 1.285a1.286 1.286 0 01-1.284-1.285v-.395h-1.686a.405.405 0 01-.405-.405V3.213c0-.224.18-.406.405-.406h1.686v-.523c0-.708.576-1.284 1.284-1.284z"/>
    </defs>
    <g fill="none" fill-rule="evenodd" transform="translate(.714)">
        <path d="M0 0h24v24H0z"/>
        <mask id="ic-cashback-white_svg__b" fill="#FFF">
            <use xlink:href="#ic-cashback-white_svg__a"/>
        </mask>
        <use xlink:href="#ic-cashback-white_svg__a"/>
        <g fill="currentColor" mask="url(#ic-cashback-white_svg__b)">
            <path d="M0 0h24v24H0z"/>
        </g>
    </g>
</svg>
