<svg xmlns="http://www.w3.org/2000/svg" xmlns:xlink="http://www.w3.org/1999/xlink" width="25" height="24"
     class="ic-need-help_svg__icon-help" viewBox="0 0 25 24">
    <defs>
        <path id="ic-need-help_svg__a"
              d="M9.866 0C4.344.076-.073 4.613.001 10.136c.074 5.52 4.61 9.938 10.133 9.864 5.521-.074 9.939-4.611 9.865-10.134-.074-5.52-4.61-9.938-10.133-9.864zm-.11 16h-.057c-.864-.027-1.473-.672-1.448-1.536.024-.848.648-1.464 1.483-1.464h.05c.888.028 1.49.667 1.465 1.555-.024.85-.639 1.445-1.494 1.445zm3.659-6.948c-.202.283-.646.634-1.206 1.064l-.616.42c-.339.259-.543.503-.62.743-.06.189-.09.239-.095.623V12H8.523l.007-.196c.028-.807.049-1.282.388-1.674.532-.616 1.706-1.361 1.756-1.393.168-.125.31-.267.416-.419.247-.336.356-.6.356-.86 0-.36-.108-.693-.323-.99-.206-.287-.598-.432-1.164-.432-.562 0-.947.176-1.177.537-.237.37-.356.76-.356 1.158v.099H6l.004-.104c.063-1.465.593-2.52 1.577-3.135C8.198 4.199 8.967 4 9.864 4c1.173 0 2.164.281 2.945.836.79.562 1.191 1.403 1.191 2.501 0 .614-.197 1.19-.585 1.715z"/>
    </defs>
    <g fill="none" fill-rule="evenodd">
        <path d="M.266 0h24v24h-24z"/>
        <g transform="translate(2.266 2)">
            <mask id="ic-need-help_svg__b" fill="currentColor">
                <use xlink:href="#ic-need-help_svg__a"/>
            </mask>
            <use fill="currentColor" fill-rule="nonzero" xlink:href="#ic-need-help_svg__a"/>
            <g mask="url(#ic-need-help_svg__b)">
                <path fill="currentColor" d="M-2-2h24v24H-2z"/>
            </g>
        </g>
    </g>
</svg>
