<svg xmlns="http://www.w3.org/2000/svg" xmlns:xlink="http://www.w3.org/1999/xlink" width="25" height="24"
     class="ic-transfer-white_svg__icon-moneyTransfer" viewBox="0 0 25 24">
    <defs>
        <path id="ic-transfer-white_svg__a"
              d="M13.67 9.363c.135.119.206.382.206.758 0 .322-.075.557-.223.7-.156.15-.377.223-.675.223h-2.152V9.162h2.065c.362 0 .632.07.78.202m.49 4.58c0 .39-.083.664-.24.796-.181.15-.47.227-.856.227h-2.24v-2.07h2.128c.433 0 .762.084.952.242.21.177.256.536.256.806m7.589-3.194c.69 0 1.25.56 1.25 1.25v8.75c0 1.24-1.01 2.25-2.25 2.25H5.906c-.331 0-.65-.132-.884-.366L3.5 21.111v.733a1.25 1.25 0 01-2.5 0v-3.75c0-.17.035-.33.097-.478a1.23 1.23 0 01.675-.676 1.27 1.27 0 01.478-.096H6a1.25 1.25 0 010 2.5h-.732L6.424 20.5H20.5V12c0-.69.56-1.25 1.25-1.25zm-9.625-5.237c.708 0 1.284.577 1.284 1.285v.532c.748.045 1.352.279 1.796.697.503.475.759 1.158.759 2.032 0 .507-.123.96-.365 1.35a2.4 2.4 0 01-.342.433c.65.428.993 1.146.993 2.101 0 .577-.13 1.087-.386 1.518a2.623 2.623 0 01-1.061 1.001 3.07 3.07 0 01-1.394.345v.396c0 .707-.576 1.284-1.284 1.284a1.285 1.285 0 01-1.284-1.284v-.396H9.155a.405.405 0 01-.405-.405V7.724c0-.222.182-.404.405-.404h1.686v-.523c0-.708.576-1.285 1.284-1.285zM21.75.907c.69 0 1.25.56 1.25 1.25v3.75c0 .168-.035.33-.097.478a1.229 1.229 0 01-.675.675 1.23 1.23 0 01-.478.097H18a1.25 1.25 0 010-2.5h.732L17.576 3.5H3.5V12A1.25 1.25 0 011 12V3.25C1 2.01 2.01 1 3.25 1h14.844c.33 0 .649.132.884.366L20.5 2.889v-.732c0-.69.56-1.25 1.25-1.25z"/>
    </defs>
    <g fill="none" fill-rule="evenodd" transform="translate(.266)">
        <path d="M0 0h24v24H0z"/>
        <mask id="ic-transfer-white_svg__b" fill="currentColor">
            <use xlink:href="#ic-transfer-white_svg__a"/>
        </mask>
        <use fill="currentColor" xlink:href="#ic-transfer-white_svg__a"/>
        <g fill="currentColor" mask="url(#ic-transfer-white_svg__b)">
            <path d="M0 0h24v24H0z"/>
        </g>
    </g>
</svg>
